<svg xmlns="http://www.w3.org/2000/svg" viewBox="0 0 800 800"><style>.st0{fill:#86cccc}.st1{fill:#feddbe}.st2{fill:#dcaf59}.st3{fill:#d39b2f}.st4{fill:#e5c382}.st5{fill:#fff}.st6{fill:#3c3c3b}</style><path class="st0" d="M0 0h800v800H0z" id="Background"/><g id="Objects"><path class="st1" d="M645.1 616.2L617.4 579s1.9-4.9-5.2-23.5-26-26.8-40.5-28.7c-14.5-1.9-37.5 8.5-48.4 7.7-10.9-.8-38.3-23-49.5-23.3-11.2-.3-19.7 12.3-18.6 17.5.6 3 2.9 6.9 4.7 9.6 27.7 3.3 55.6 1.2 83.4 3.1 16.5 1.1 40.3 3.3 45.1 22.7.8 3.1-4 4.4-4.8 1.3-5.2-20.5-37-19.3-53.3-19.6-25.2-.5-50.6.3-75.6-3.2-4.6.4-9.9.7-12.4.3-4.7-.8-35.6-12.9-40.8-14.5-5.2-1.6-33.1-21.3-39.1-24.9-1.7-1-3.2-1.8-4.6-2.3-7.7-.4-22.6 1.2-19.2 10.2 1.9 4.9 6.1 8.9 10 12.2 6.4 5.4 13.3 10.1 20.3 14.7 23.7 15.4 48.4 29.2 74.5 40.1 2.9 1.2 1.6 6-1.3 4.7-29.9-12.5-58.7-28.4-85.3-47-8.2-5.7-22.3-14.3-23.5-25.4-.9-8.9 7-12.8 15.3-14.1-9.6-7.8-36.2-28.6-41.6-28.6-6.6 0-13.1 5.3-13.1 13.1s16.8 27.5 28.7 38.2c11.9 10.7 26.5 36.4 34.8 40.8 8.2 4.4 77.7 51.5 95.8 56.9 18.1 5.5 87.6 13.7 104.6 20.8 17 7.1 13.7 23 13.7 23l73.6-44.6z"/><circle class="st2" cx="497.6" cy="516.4" r="34.5"/><circle class="st3" cx="497.6" cy="516.4" r="30.9"/><path class="st4" d="M525.6 516.4c0 15.4-12.5 27.9-27.9 27.9-15.4 0-27.9-12.5-27.9-27.9 0-15.4 12.5-27.9 27.9-27.9 15.4 0 27.9 12.5 27.9 27.9z"/><path class="st3" d="M498.9 493.9v4.2c2.3.1 10.9.4 11.1 8.4h-5.4c-.1-3.3-2.7-4.2-5.7-4.3v10.7c5.2 1.4 11.6 3.4 11.6 10.6 0 5-3.3 7.6-4.6 8.5-2.4 1.5-5.3 1.8-7.1 1.9v5.1h-2.6v-5.1c-2.3-.1-5.4-.1-8.5-2.9-2.7-2.4-2.9-4.9-2.9-7.1h5.2c-.1 2.3 1.2 5.5 6.1 5.6v-12c-8.4-2.5-10.7-4.7-10.7-10.1 0-4.3 2.6-6.6 4.4-7.7 2.4-1.4 5.1-1.5 6.5-1.6v-4.2h2.6zm-2.6 8.3c-5.5.6-5.7 3.9-5.7 4.8 0 3.4 3.2 4.4 5.7 5.1v-9.9zm2.6 27.3c4.5-.1 6.3-2.9 6.3-5.4 0-3.8-3.7-5.1-6.3-5.9v11.3z"/><circle class="st2" cx="449.6" cy="493.9" r="34.5"/><path class="st3" d="M480.6 493.9c0 17.1-13.8 30.9-30.9 30.9-17.1 0-30.9-13.8-30.9-30.9 0-17.1 13.8-30.9 30.9-30.9 17 0 30.9 13.8 30.9 30.9z"/><circle class="st4" cx="449.6" cy="493.9" r="27.9"/><path class="st3" d="M450.9 471.4v4.2c2.3 0 10.9.4 11.1 8.4h-5.4c-.1-3.3-2.7-4.2-5.7-4.3v10.7c5.2 1.4 11.6 3.4 11.6 10.6 0 5-3.3 7.6-4.6 8.5-2.4 1.5-5.3 1.8-7.1 1.9v5.1h-2.6v-5.1c-2.3-.1-5.4-.1-8.5-2.9-2.7-2.4-2.9-4.9-2.9-7.1h5.2c-.1 2.3 1.2 5.5 6.1 5.6v-12c-8.4-2.5-10.7-4.7-10.7-10.1 0-4.3 2.6-6.6 4.4-7.7 2.4-1.4 5.1-1.5 6.5-1.6v-4.2h2.6zm-2.6 8.3c-5.5.6-5.7 3.9-5.7 4.8 0 3.4 3.2 4.4 5.7 5.1v-9.9zm2.6 27.3c4.5-.1 6.3-2.9 6.3-5.4 0-3.8-3.7-5.1-6.3-5.9V507z"/><circle class="st2" cx="489.9" cy="382.6" r="34.5"/><circle class="st3" cx="489.9" cy="382.6" r="30.9"/><circle class="st4" cx="489.9" cy="382.6" r="27.9"/><path class="st3" d="M491.2 360.1v4.2c2.3 0 10.9.4 11.1 8.4h-5.4c-.1-3.3-2.7-4.2-5.7-4.3v10.7c5.2 1.4 11.6 3.4 11.6 10.6 0 5-3.3 7.6-4.6 8.5-2.4 1.5-5.3 1.8-7.1 1.9v5.1h-2.6v-5.1c-2.3-.1-5.4-.1-8.5-2.9-2.7-2.4-2.9-4.9-2.9-7.1h5.2c-.1 2.3 1.2 5.5 6.1 5.6v-12c-8.4-2.5-10.7-4.7-10.7-10.1 0-4.3 2.6-6.6 4.4-7.7 2.4-1.4 5.1-1.5 6.5-1.6v-4.2h2.6zm-2.7 8.3c-5.5.6-5.7 3.9-5.7 4.8 0 3.4 3.2 4.4 5.7 5.1v-9.9zm2.6 27.3c4.5-.1 6.3-2.9 6.3-5.4 0-3.8-3.7-5.1-6.3-5.9v11.3z"/><path class="st1" d="M360 185.3c.3-.5-.4-2.4-1.5-4.5-.1.1-.2.1-.3.2-9.9 3.6-19.6 9.5-28.9 14.4l-4.5 2.4c-1.2 2.5-3.4 5-5.6 6.8-2.6 2.2-5.6 2.5-8.8 1.4-.1 0-.1 0-.1-.1-1 .2-2.1.3-3.7.5-5.8.5-11.6 1.2-17.4 2.2.9 4.1 2.6 8 4.5 11.9 12.1 1.3 32.3 2.8 38.8 0 9.6-4.3 26.8-33.8 27.5-35.2z"/><path class="st1" d="M253.3 139.2c-12.6 4.9-50.7 44.5-61.9 56.3-11.2 11.8-19.9 20.9-24.4 22.5-4.6 1.6-35.9 5.3-35.9 5.3l19.8 81.3s19.8-6.6 25.3-7.2c5.4-.5 54.8 11.6 74.9 11.6 20.2 0 92.5-10.1 100.2-11.9 7.7-1.7 51.1-20.9 54.9-24.7 3.8-3.8 2.6-18.6-3.1-21.7-5.6-3.1-29.1-.5-36.5 3.5-7.4 4-19.7 6.8-31.7 4.7-12-2.1-27.1-3.5-33.7-12-3.1-4-7.5-15.3-11.1-26.4-2-4.2-3.8-8.5-4.5-13-.1-.7.1-1.2.5-1.6.2-.2.5-.4.9-.5 5.8-1 11.6-1.8 17.4-2.3 1.9-.2 4.7.3 6.2-.8.6-.5 1.3-.9 2-1.4 3.1-2 6.4-3.9 9.7-5.6.2-.2.5-.4.8-.4 1.8-1 3.7-2 5.5-2.9 9.3-4.9 18.8-10.6 28.6-14.2.3-.1.7-.1.9-.1h.2c1.4.7 10.1 5.4 15 7.8 4.9 2.4 13.2 4.1 14.9 5.7 1.7 1.6 19.3 24.8 29 27.9 9.7 3 18-6 17.5-11.7-.5-5.7-24.3-29.9-29-35.6-4.7-5.7-29.6-21.9-35.7-25-6.2-3.1-104.1-12.4-116.7-7.6z"/><circle class="st2" cx="417.7" cy="234.7" r="34.5"/><circle class="st3" cx="417.7" cy="234.7" r="30.9"/><path class="st4" d="M445.6 234.7c0 15.4-12.5 27.9-27.9 27.9-15.4 0-27.9-12.5-27.9-27.9 0-15.4 12.5-27.9 27.9-27.9 15.4 0 27.9 12.5 27.9 27.9z"/><path class="st3" d="M419 212.2v4.2c2.3.1 10.9.4 11.1 8.4h-5.4c-.1-3.3-2.7-4.2-5.7-4.3v10.7c5.2 1.4 11.6 3.4 11.6 10.6 0 5-3.3 7.6-4.6 8.5-2.4 1.5-5.3 1.8-7.1 1.9v5.1h-2.6v-5.1c-2.3-.1-5.4-.1-8.5-2.9-2.7-2.4-2.9-4.9-2.9-7.1h5.2c-.1 2.3 1.2 5.5 6.1 5.6v-12c-8.4-2.5-10.7-4.7-10.7-10.1 0-4.3 2.6-6.6 4.4-7.7 2.4-1.4 5.1-1.5 6.5-1.6v-4.2h2.6zm-2.7 8.3c-5.5.6-5.7 3.9-5.7 4.8 0 3.4 3.2 4.4 5.7 5.1v-9.9zm2.6 27.3c4.5-.1 6.3-2.9 6.3-5.4 0-3.8-3.7-5.1-6.3-5.9v11.3z"/><path class="st1" d="M285.7 207.5c-.1-.7.1-1.2.5-1.6l.2-.2c-.9-1.5-1.9-3-2.8-4.5-.3-.5-.5-.9-.6-1.4-12-18.9-26.3-36.3-39.1-54.7-16.5 12.8-43.4 40.7-52.5 50.3-11.2 11.8-19.9 20.9-24.4 22.5-4.6 1.6-35.9 5.3-35.9 5.3l19.8 81.3s19.8-6.6 25.3-7.2c5.4-.5 54.8 11.6 74.9 11.6 20.2 0 92.5-10.1 100.2-11.9 7.7-1.7 51.1-20.9 54.9-24.7 3.8-3.8 2.6-18.6-3.1-21.7-5.6-3.1-29.1-.5-36.5 3.5-7.4 4-19.7 6.8-31.7 4.7-12-2.1-27.1-3.5-33.7-12-3.1-4-7.5-15.3-11.1-26.4-1.9-4.1-3.7-8.4-4.4-12.9z"/><path class="st5" d="M143 301.7c.1-2 33.2-9.3 33.2-9.3L169 199l10.7-1.3.9 9.4 8.2 88.1 1.5 16.4-12.3 1-.4-7c0 .1-34.7-2-34.6-3.9z"/><path class="st6" d="M0 207.8v174.9l178.2-65.5-.2-4.5-.4-7s-34.8-2-34.6-4c.1-2 33.2-9.3 33.2-9.3L169 199l-1.3-17.1L0 207.8zM106.3 308c-1.1-6.1 3-11.9 9.1-13 6.1-1.1 11.9 3 13 9.1 1.1 6.1-3 11.9-9.1 13-6.1 1-11.9-3-13-9.1z"/><circle class="st5" cx="117.3" cy="306" r="11.2"/><path class="st1" d="M645.1 616.2L617.4 579s1.9-4.9-5.2-23.5-26-26.8-40.5-28.7c-4.1-.5-8.8-.1-13.8.8 0 .9-.2 1.8-.8 2.8-2.5 4.4-5.6 8.4-9.6 11.4 16.1 1.3 36.4 4.6 40.8 22.4.8 3.1-4 4.4-4.8 1.3-5.2-20.5-37-19.3-53.3-19.6-25.2-.5-50.6.3-75.6-3.2-4.6.4-9.9.7-12.4.3-4.7-.8-35.6-12.9-40.8-14.5-5.2-1.6-33.1-21.3-39.1-24.9-1.7-1-3.2-1.8-4.6-2.3-7.7-.4-22.6 1.2-19.2 10.2 1.9 4.9 6.1 8.9 10 12.2 6.4 5.4 13.3 10.1 20.3 14.7 23.7 15.4 48.4 29.2 74.5 40.1 2.9 1.2 1.6 6-1.3 4.7-29.9-12.5-58.7-28.4-85.3-47-8.2-5.7-22.3-14.3-23.5-25.4-.9-8.9 7-12.8 15.3-14.1-9.5-7.9-36.1-28.7-41.5-28.7-6.6 0-13.1 5.3-13.1 13.1s16.8 27.5 28.7 38.2c11.9 10.7 26.5 36.4 34.8 40.8 8.2 4.4 77.7 51.5 95.8 56.9 18.1 5.5 87.6 13.7 104.6 20.8 17 7.1 13.7 23 13.7 23l73.6-44.6z"/><path class="st5" d="M585.7 683.1c1.4-1.4-15.1-31-15.1-31l74.6-56.6-6.1-8.9-7.6 5.6-71.3 52.3-13.3 9.7 7.4 9.9 5.5-4.4c-.1.1 24.5 24.8 25.9 23.4z"/><path class="st6" d="M658.8 585.1l-13.7 10.4-74.5 56.5s16.5 29.6 15.1 31c-1.4 1.4-26-23.2-26-23.2l-5.5 4.4-3.5 2.8 60 133h186.8L658.8 585.1zM589.9 711c-3.2-5.3-1.6-12.2 3.7-15.4 5.3-3.2 12.2-1.6 15.4 3.7 3.2 5.3 1.6 12.2-3.7 15.4-5.3 3.2-12.2 1.6-15.4-3.7z"/><path class="st5" d="M609 699.3c-3.2-5.3-10.1-6.9-15.4-3.7-5.3 3.2-6.9 10.1-3.7 15.4 3.2 5.3 10.1 6.9 15.4 3.7 5.3-3.2 7-10.1 3.7-15.4z"/></g></svg>